<?xml version="1.0" encoding="UTF-8"?>
<svg y="251" width="30" height="30" viewBox="-5 -5 30 30" xmlns="http://www.w3.org/2000/svg">
<path d="M1.09 6.91v9.454a2.545 2.545 0 002.546 2.545H6v-12H1.09zm0-.91H6V1.09H3.636a2.545 2.545 0 00-2.545 2.546V6zM7 18.91h9.364a2.545 2.545 0 002.545-2.546V12H7v6.91zM18.91 11V3.636a2.545 2.545 0 00-2.546-2.545H7V11h11.91zM3.635 0h12.728A3.636 3.636 0 0120 3.636v12.728A3.636 3.636 0 0116.364 20H3.636A3.636 3.636 0 010 16.364V3.636A3.636 3.636 0 013.636 0z" fill="#111" fill-rule="evenodd"/>
</svg>
