<?xml version="1.0" encoding="UTF-8"?>
<svg y="2416" width="33" height="34" viewBox="-5 -5 33 34" xmlns="http://www.w3.org/2000/svg">
<path d="M19.462 13.302c.423 0 .72.325.762.732 0 .407-.339.732-.762.732H1.44c-.423 0-.761-.325-.761-.732s.338-.732.761-.732h18.023zM21.366.203c.423 0 .72.326.804.733 0 .406-.339.732-.762.732H12.82c-.889 0-1.608.691-1.608 1.546v1.87c4.612.285 8.25 3.052 8.25 6.428 0 .407-.338.732-.761.732H2.285c-.423 0-.761-.325-.761-.732 0-3.376 3.596-6.143 8.165-6.427V3.173c0-1.627 1.396-2.97 3.089-2.97h8.588zM17.854 10.78c-.507-2.441-3.638-4.312-7.403-4.312-3.766 0-6.897 1.871-7.404 4.312h14.807zm-13.073 7.2c-.514 0-.93-.401-.93-.895 0-.495.416-.895.93-.895s.931.4.931.895c0 .494-.417.895-.93.895zm0 2.806c-.514 0-.93-.4-.93-.894 0-.495.416-.895.93-.895s.931.4.931.895c0 .494-.417.894-.93.894zm0 1.017c.508 0 .931.366.931.895a.93.93 0 01-.93.936c-.508 0-.931-.448-.931-.936 0-.488.423-.895.93-.895zM16.12 17.98c-.514 0-.93-.401-.93-.895 0-.495.416-.895.93-.895s.93.4.93.895c0 .494-.416.895-.93.895zm0 2.806c-.514 0-.93-.4-.93-.894 0-.495.416-.895.93-.895s.93.4.93.895c0 .494-.416.894-.93.894zm0 1.017c.55 0 .93.366.93.895a.93.93 0 01-.93.936c-.508 0-.93-.448-.93-.936 0-.488.422-.895.93-.895zm-3.766-3.823c-.514 0-.93-.401-.93-.895 0-.495.416-.895.93-.895.515 0 .931.4.931.895 0 .494-.416.895-.93.895zm0 2.806c-.514 0-.93-.4-.93-.894 0-.495.416-.895.93-.895.515 0 .931.4.931.895 0 .494-.416.894-.93.894zm0 1.017c.508 0 .931.366.931.895a.93.93 0 01-.93.936c-.508 0-.931-.448-.931-.936 0-.488.423-.895.93-.895zM8.547 17.98c-.514 0-.931-.401-.931-.895 0-.495.417-.895.93-.895.515 0 .932.4.932.895 0 .494-.417.895-.931.895zm0 2.806c-.514 0-.931-.4-.931-.894 0-.495.417-.895.93-.895.515 0 .932.4.932.895 0 .494-.417.894-.931.894zm0 1.017c.55 0 .93.366.93.895a.93.93 0 01-.93.936c-.508 0-.931-.448-.931-.936 0-.488.423-.895.93-.895z" fill="#111" fill-rule="evenodd"/>
</svg>
