<?xml version="1.0" encoding="UTF-8"?>
<svg y="953" width="32" height="30" viewBox="-5 -5 32 30" xmlns="http://www.w3.org/2000/svg">
<path d="M12.549 17.024c.349.385.747.725 1.184 1.01a38.7 38.7 0 01-1.963 1.253l-.77.461-.77-.46C3.76 15.416.5 11.131.5 7.092.5.97 7.563-1.279 11.011 1.882c3.273-2.928 9.8-1.168 10.436 4.287a7.85 7.85 0 01-.143 2.651 6.024 6.024 0 00-1.344-1.04 6.47 6.47 0 00-.002-1.437C19.35 1.14 12.433.723 11 4.498 9.508.572 2 1.155 2 7.093 2 10.052 4.295 13.988 11 18a38.223 38.223 0 001.549-.976zM17.5 12.25h1.75a.5.5 0 01.5.5v.5a.5.5 0 01-.5.5H17.5v1.75a.5.5 0 01-.5.5h-.5a.5.5 0 01-.5-.5v-1.75h-1.75a.5.5 0 01-.5-.5v-.5a.5.5 0 01.5-.5H16V10.5a.5.5 0 01.5-.5h.5a.5.5 0 01.5.5v1.75z" fill="#111" fill-rule="evenodd"/>
</svg>
