<?xml version="1.0" encoding="UTF-8"?>
<svg y="2002" width="34" height="28" viewBox="-5 -5 34 28" xmlns="http://www.w3.org/2000/svg">
<path d="M23.788 17.47h-1.235v-1.905H1.412v1.906H.142v-6.46c0-1.34 1.093-2.4 2.4-2.4h18.846c1.341 0 2.4 1.095 2.4 2.4v6.46zM1.412 14.33h21.106v-3.318c0-.6-.494-1.13-1.13-1.13H2.541c-.6 0-1.13.494-1.13 1.13v3.317zm1.34-6.777h-.105c-.423 0-.812.07-1.165.212V3.812A3.11 3.11 0 014.588.706h14.718a3.11 3.11 0 013.106 3.106v3.953a3.109 3.109 0 00-1.165-.212h-.07V3.812c0-.988-.812-1.836-1.836-1.836H4.588c-.988 0-1.835.812-1.835 1.836v3.74zm8.507 0h-1.27v-2.47a.43.43 0 00-.424-.424H6.247a.43.43 0 00-.423.423v2.47H4.588v-2.47c0-.953.777-1.694 1.694-1.694H9.6c.918 0 1.659.777 1.659 1.694v2.47zm8.117 0h-1.305v-2.47a.43.43 0 00-.424-.424H14.33a.43.43 0 00-.423.423v2.47H12.67v-2.47c0-.953.776-1.694 1.694-1.694h3.317c.953 0 1.694.777 1.694 1.694v2.47z" fill="#111" fill-rule="evenodd"/>
</svg>
