<?xml version="1.0" encoding="utf-8"?>
<!-- Generator: Adobe Illustrator 23.0.1, SVG Export Plug-In . SVG Version: 6.00 Build 0)  -->
<svg version="1.1" id="Camada_1" xmlns="http://www.w3.org/2000/svg" xmlns:xlink="http://www.w3.org/1999/xlink" x="0px" y="0px"
	 viewBox="0 0 52 52" style="enable-background:new 0 0 52 52;" xml:space="preserve"
	 width="52" height="52">
<style type="text/css">
	.st0{fill:none;stroke:#FFFFFF;stroke-miterlimit:10;}
	.st1{opacity:0.1;fill:none;stroke:#FFFFFF;enable-background:new    ;}
	.st2{fill:#FFFFFF;enable-background:new    ;}
</style>
<g>
	<path class="st0" d="M5,5"/>
	<circle class="st1" cx="26" cy="26" r="20.5"/>
</g>
<path class="st2" d="M26,21.6c-2.2,0-5.2,0.4-5.2,0.4l0,0c-1,0.1-1.8,0.8-1.8,1.6V26l0,0v2.4l0,0c0,0.8,0.8,1.5,1.8,1.6l0,0
	c0,0,3,0.4,5.2,0.4s5.2-0.4,5.2-0.4l0,0c1-0.1,1.8-0.8,1.8-1.6l0,0V26l0,0v-2.4c0-0.8-0.8-1.5-1.8-1.6l0,0
	C31.2,22,28.2,21.6,26,21.6z M24.4,24.1l4.4,1.9l-4.4,1.9V24.1z"/>
</svg>
